<svg width="24" height="24" viewBox="0 0 24 24" fill="none" xmlns="http://www.w3.org/2000/svg">
<rect width="24" height="24" rx="12" fill="#FF1239"/>
<path d="M17.8638 15.0427C17.5169 14.4359 17.0012 12.7192 17.0012 10.477C17.0012 9.1305 16.4743 7.83911 15.5365 6.88696C14.5986 5.93481 13.3266 5.3999 12.0003 5.3999C10.674 5.3999 9.40201 5.93481 8.46417 6.88696C7.52632 7.83911 6.99945 9.1305 6.99945 10.477C6.99945 12.7199 6.48311 14.4359 6.13617 15.0427C6.04758 15.1969 6.00061 15.3721 6.00001 15.5507C5.9994 15.7293 6.04518 15.9048 6.13274 16.0597C6.22029 16.2145 6.34651 16.3432 6.49868 16.4327C6.65084 16.5223 6.82358 16.5695 6.99945 16.5696H9.55051C9.66589 17.1428 9.97273 17.6579 10.4191 18.0279C10.8655 18.3978 11.4241 18.5999 12.0003 18.5999C12.5766 18.5999 13.1351 18.3978 13.5815 18.0279C14.0279 17.6579 14.3347 17.1428 14.4501 16.5696H17.0012C17.177 16.5694 17.3496 16.5221 17.5017 16.4325C17.6538 16.3429 17.7799 16.2142 17.8674 16.0594C17.9549 15.9046 18.0006 15.729 18 15.5505C17.9994 15.372 17.9524 15.1969 17.8638 15.0427ZM12.0003 17.585C11.6901 17.5849 11.3876 17.4873 11.1344 17.3054C10.8812 17.1236 10.6897 16.8665 10.5863 16.5696H13.4143C13.3109 16.8665 13.1194 17.1236 12.8662 17.3054C12.613 17.4873 12.3105 17.5849 12.0003 17.585Z" fill="white"/>
</svg>
